<?xml version="1.0" encoding="utf-8"?>
<svg viewBox="0 0 500 500" xmlns="http://www.w3.org/2000/svg">
  <path d="M 406.865 490.97 C 395.522 490.97 386.248 481.695 386.248 470.362 L 386.248 405.018 C 386.248 367.713 371.62 332.679 345.239 306.087 C 333.895 294.956 321.12 285.887 307.097 279.086 C 300.301 275.786 295.971 269.402 295.35 261.98 C 294.739 254.559 298.444 247.342 304.625 243.431 C 334.926 223.637 352.863 190.252 352.863 154.18 C 352.863 95.436 305.043 47.827 246.51 47.827 C 187.762 47.827 139.942 95.648 139.942 154.18 C 139.942 190.252 158.085 223.637 188.382 243.431 C 194.564 247.554 198.066 254.559 197.661 261.98 C 197.244 269.402 192.711 275.995 185.909 279.086 C 137.882 302.167 106.759 351.434 106.759 404.816 L 106.759 470.16 C 106.759 481.489 97.483 490.767 86.142 490.767 C 74.813 490.767 65.534 481.489 65.534 470.16 L 65.534 404.816 C 65.534 346.071 94.594 291.242 141.39 257.652 C 114.389 230.236 98.717 193.134 98.717 153.766 C 98.717 72.355 165.089 6.188 246.51 6.188 C 327.922 6.188 394.088 72.355 394.088 153.766 C 394.088 193.134 378.623 230.236 351.623 257.652 C 359.665 263.419 367.078 269.605 374.294 276.614 C 408.515 310.83 427.474 356.378 427.474 404.614 L 427.474 469.944 C 427.474 481.695 418.199 490.97 406.865 490.97 Z" fill="black" style=""/>
</svg>