<?xml version="1.0" encoding="utf-8"?>
<svg viewBox="0 0 500 500" xmlns="http://www.w3.org/2000/svg">
  <path d="M 416.649 489.634 L 80.258 489.634 C 70.624 489.634 62.218 482.87 60.169 473.439 L 4.823 219.866 C 3.592 213.714 5.026 207.566 8.921 202.646 C 12.816 197.725 18.761 195.061 24.91 195.061 L 472.202 195.061 C 478.352 195.061 484.297 197.931 488.193 202.646 C 492.086 207.566 493.522 213.714 492.291 219.866 L 436.739 473.439 C 434.689 482.87 426.283 489.634 416.649 489.634 Z M 96.862 448.635 L 400.25 448.635 L 446.783 236.06 L 50.33 236.06 L 96.862 448.635 Z" fill="black" style=""/>
  <path d="M 83.538 236.06 C 79.644 236.06 75.543 234.829 72.058 232.575 C 62.629 226.22 60.169 213.51 66.525 204.08 L 192.389 16.923 C 198.744 7.494 211.452 5.033 220.883 11.388 C 230.313 17.743 232.772 30.452 226.417 39.882 L 100.552 227.04 C 96.658 232.78 90.097 236.06 83.538 236.06 Z" fill="black" style=""/>
  <path d="M 413.371 231.959 C 408.655 231.959 403.735 230.319 399.841 226.834 L 249.991 96.459 C 241.383 89.081 240.561 76.166 247.943 67.556 C 255.321 58.946 268.441 58.127 276.845 65.506 L 426.694 195.88 C 435.304 203.262 436.124 216.175 428.745 224.784 C 424.85 229.5 419.11 231.959 413.371 231.959 Z" fill="black" style=""/>
  <path d="M 184.395 416.658 C 174.964 416.658 166.558 410.097 164.306 400.462 L 142.781 302.272 C 140.321 291.203 147.291 280.337 158.361 277.877 C 169.43 275.417 180.295 282.387 182.755 293.457 L 204.279 391.647 C 206.738 402.718 199.768 413.582 188.699 416.041 C 187.264 416.658 185.829 416.658 184.395 416.658 Z" fill="black" style=""/>
  <path d="M 312.72 416.658 C 311.285 416.658 309.849 416.451 308.415 416.246 C 297.346 413.787 290.375 402.921 292.835 391.854 L 314.359 293.662 C 316.819 282.592 327.683 275.623 338.753 278.083 C 349.823 280.542 356.792 291.407 354.333 302.477 L 332.808 400.668 C 330.758 410.303 322.149 416.658 312.72 416.658 Z" fill="black" style=""/>
</svg>