<?xml version="1.0" encoding="utf-8"?>
<svg viewBox="0 0 500 500" xmlns="http://www.w3.org/2000/svg">
  <path d="M 227.31 419.4 C 103.57 419.4 2.896 326.179 2.896 211.599 C 2.896 97.017 103.57 3.801 227.31 3.801 C 351.054 3.801 451.727 97.017 451.727 211.599 C 451.727 326.179 351.054 419.4 227.31 419.4 Z M 227.31 42.446 C 126.638 42.446 44.843 118.184 44.843 211.404 C 44.843 304.624 126.638 380.363 227.31 380.363 C 327.983 380.363 409.781 304.624 409.781 211.404 C 409.781 118.184 327.983 42.446 227.31 42.446 Z" fill="black" style=""/>
  <path d="M 474.689 458.061 C 469.406 458.061 464.326 456.228 460.262 452.747 L 359.464 361.864 C 351.538 354.717 351.538 343.174 359.464 336.029 C 367.39 328.882 380.193 328.882 388.118 336.029 L 488.917 426.91 C 496.841 434.057 496.841 445.6 488.917 452.747 C 485.056 456.228 479.773 458.061 474.689 458.061 Z" fill="black" style=""/>
</svg>