<?xml version="1.0" encoding="utf-8"?>
<svg viewBox="0 0 500 500" xmlns="http://www.w3.org/2000/svg">
  <path d="M 249.605 475.715 C 244.608 475.715 239.799 473.79 235.955 470.14 L 48.045 282.231 C -10.233 222.797 -9.654 126.821 49.004 68.162 C 77.853 39.313 115.938 23.543 156.52 23.543 C 190.754 23.736 223.067 34.889 249.414 55.276 C 308.845 9.118 395.394 13.543 450.015 68.162 C 478.676 96.82 494.449 134.903 494.64 175.486 C 494.64 215.684 479.057 253.379 450.979 282.037 L 263.071 469.946 C 259.608 473.79 254.611 475.715 249.605 475.715 Z M 156.52 62.006 C 126.326 62.006 97.855 73.932 76.315 95.28 C 32.466 139.134 32.082 210.678 75.549 255.106 L 249.605 429.169 L 423.671 255.106 C 444.631 233.759 456.171 205.681 456.171 175.68 C 456.171 145.292 444.245 116.821 422.896 95.474 C 378.856 51.432 307.112 51.24 262.877 94.708 C 255.376 102.017 243.456 102.017 235.955 94.708 C 214.794 73.739 186.718 62.2 156.52 62.006 Z" fill="black" style=""/>
</svg>